# xmcd
#
# Track frame offsets: 
#        150
#        16967
#        30054
#        47195
#        62901
#        83503
#        100753
#        114753
#        127450
#        145784
#        158518
#        175815
#
# Disc length: 2577 seconds
#
# Revision: 0
# Processed by: cddbd v1.5.2PL0 Copyright (c) Steve Scherf et al.
# Submitted via: ExactAudioCopyFreeDBPlugin 1.0
#
DISCID=8c0a0f0c
DTITLE=Eric Bibb - Get Onboard
DYEAR=2008
DGENRE=Blues
TTITLE0=Spirit I Am
TTITLE1=The Promised Land
TTITLE2=New Beale Street Blues
TTITLE3=Get Onboard
TTITLE4=If Our Hearts Ain't in It
TTITLE5=Pockets
TTITLE6=River Blues
TTITLE7=Deep In My Soul
TTITLE8=Conversation
TTITLE9=God's Kingdom
TTITLE10=Step by Step
TTITLE11=Stayed on Freedom
EXTD=
EXTT0=
EXTT1=
EXTT2=
EXTT3=
EXTT4=
EXTT5=
EXTT6=
EXTT7=
EXTT8=
EXTT9=
EXTT10=
EXTT11=
PLAYORDER=
